HIERARCHY
ROOT Hips
{
	OFFSET 0.000000 0.000000 0.000000
	CHANNELS 6 Xposition Yposition Zposition Zrotation Yrotation Xrotation 
	JOINT LHipJoint
	{
		OFFSET 0.000000 0.000000 0.000000
		CHANNELS 3 Zrotation Yrotation Xrotation
		JOINT LeftUpLeg
		{
			OFFSET 1.363060 -1.794630 0.839290
			CHANNELS 3 Zrotation Yrotation Xrotation
			JOINT LeftLeg
			{
				OFFSET 2.448110 -6.726130 0.000000
				CHANNELS 3 Zrotation Yrotation Xrotation
				JOINT LeftFoot
				{
					OFFSET 2.562200 -7.039590 0.000000
					CHANNELS 3 Zrotation Yrotation Xrotation
					JOINT LeftToeBase
					{
						OFFSET 0.157640 -0.433110 2.322550
						CHANNELS 3 Zrotation Yrotation Xrotation
						End Site
						{
							OFFSET 0.000000 0.000000 0.000000
						}
					}
				}
			}
		}
	}
	JOINT RHipJoint
	{
		OFFSET 0.000000 0.000000 0.000000
		CHANNELS 3 Zrotation Yrotation Xrotation
		JOINT RightUpLeg
		{
			OFFSET -1.305520 -1.794630 0.839290
			CHANNELS 3 Zrotation Yrotation Xrotation
			JOINT RightLeg
			{
				OFFSET -2.542530 -6.985550 0.000000
				CHANNELS 3 Zrotation Yrotation Xrotation
				JOINT RightFoot
				{
					OFFSET -2.568260 -7.056230 0.000000
					CHANNELS 3 Zrotation Yrotation Xrotation
					JOINT RightToeBase
					{
						OFFSET -0.164730 -0.452590 2.363150
						CHANNELS 3 Zrotation Yrotation Xrotation
						End Site
						{
							OFFSET 0.000000 0.000000 0.000000
						}
					}
				}
			}
		}
	}
	JOINT LowerBack
	{
		OFFSET 0.000000 0.000000 0.000000
		CHANNELS 3 Zrotation Yrotation Xrotation
		JOINT Spine
		{
			OFFSET 0.028270 2.035590 -0.193380
			CHANNELS 3 Zrotation Yrotation Xrotation
			JOINT Spine1
			{
				OFFSET 0.056720 2.048850 -0.042750
				CHANNELS 3 Zrotation Yrotation Xrotation
				JOINT Neck
				{
					OFFSET 0.000000 0.000000 0.000000
					CHANNELS 3 Zrotation Yrotation Xrotation
					JOINT Neck1
					{
						OFFSET -0.054170 1.746240 0.172020
						CHANNELS 3 Zrotation Yrotation Xrotation
						JOINT Head
						{
							OFFSET 0.104070 1.761360 -0.123970
							CHANNELS 3 Zrotation Yrotation Xrotation
							End Site
							{
								OFFSET 0.000000 0.000000 0.000000
							}
						}
					}
				}
				JOINT LeftShoulder
				{
					OFFSET 0.000000 0.000000 0.000000
					CHANNELS 3 Zrotation Yrotation Xrotation
					JOINT LeftArm
					{
						OFFSET 3.362410 1.200890 -0.311210
						CHANNELS 3 Zrotation Yrotation Xrotation
						JOINT LeftForeArm
						{
							OFFSET 4.983000 -0.000000 -0.000000
							CHANNELS 3 Zrotation Yrotation Xrotation
							JOINT LeftHand
							{
								OFFSET 3.483560 -0.000000 -0.000000
								CHANNELS 3 Zrotation Yrotation Xrotation
								JOINT LeftFingerBase
								{
									OFFSET 0.000000 0.000000 0.000000
									CHANNELS 3 Zrotation Yrotation Xrotation
									JOINT LeftHandIndex1
									{
										OFFSET 0.715260 -0.000000 -0.000000
										CHANNELS 3 Zrotation Yrotation Xrotation
										End Site
										{
											OFFSET 0.000000 0.000000 0.000000
										}
									}
								}
								JOINT LThumb
								{
									OFFSET 0.000000 0.000000 0.000000
									CHANNELS 3 Zrotation Yrotation Xrotation
									End Site
									{
										OFFSET 0.000000 0.000000 0.000000
									}
								}
							}
						}
					}
				}
				JOINT RightShoulder
				{
					OFFSET 0.000000 0.000000 0.000000
					CHANNELS 3 Zrotation Yrotation Xrotation
					JOINT RightArm
					{
						OFFSET -3.136600 1.374050 -0.404650
						CHANNELS 3 Zrotation Yrotation Xrotation
						JOINT RightForeArm
						{
							OFFSET -5.241900 -0.000000 -0.000000
							CHANNELS 3 Zrotation Yrotation Xrotation
							JOINT RightHand
							{
								OFFSET -3.444170 -0.000000 -0.000000
								CHANNELS 3 Zrotation Yrotation Xrotation
								JOINT RightFingerBase
								{
									OFFSET 0.000000 0.000000 0.000000
									CHANNELS 3 Zrotation Yrotation Xrotation
									JOINT RightHandIndex1
									{
										OFFSET -0.622530 -0.000000 -0.000000
										CHANNELS 3 Zrotation Yrotation Xrotation
										End Site
										{
											OFFSET 0.000000 0.000000 0.000000
										}
									}
								}
								JOINT RThumb
								{
									OFFSET 0.000000 0.000000 0.000000
									CHANNELS 3 Zrotation Yrotation Xrotation
									End Site
									{
										OFFSET 0.000000 0.000000 0.000000
									}
								}
							}
						}
					}
				}
			}
		}
	}
}
MOTION
Frames: 10
Frame Time: 0.033333
-2.154741 16.431558 23.315812 1.211074 6.503551 9.320151 -5.082115 4.763984 -5.442766 -16.319037 -1.828731 -3.723988 -9.237016 -12.845729 -33.255338 0.522453 12.714543 27.487668 0.000000 0.000000 0.000000 13.630951 2.712067 -4.159041 1.402864 -2.873293 -1.131932 2.730620 -28.001427 45.979649 15.501910 -23.422746 1.382478 0.000000 0.000000 0.000000 -6.569169 -1.483440 17.133430 4.486003 -1.417874 -6.216443 1.537693 -0.918395 -4.624879 -0.776585 0.419846 -2.734633 4.850504 -0.097232 5.129020 0.000000 0.000000 0.000000 8.143688 12.443458 7.777597 -71.758903 -5.451537 23.113278 -21.807954 -76.470002 0.597631 -0.034628 -13.882548 0.295437 -0.024691 -13.890707 0.000000 0.000000 0.000000 0.000000 0.000000 0.000000 0.000000 -6.035031 -16.539102 6.932873 68.774538 7.860130 13.054857 30.188609 55.192414 0.250506 0.795972 10.603676 0.124166 0.788279 10.607223 0.000000 0.000000 0.000000 0.000000 0.000000 0.000000 0.000000 
-2.170925 16.454870 23.509047 1.503538 6.263693 9.504902 -4.706120 4.678497 -5.775527 -17.049324 -1.528195 -3.105221 -8.840558 -12.559937 -32.586175 0.354461 11.697101 25.255523 0.000000 0.000000 0.000000 13.667061 2.664691 -3.836544 1.187759 -2.829582 -1.181568 2.432778 -27.821781 45.834792 15.876673 -24.893804 3.572567 0.000000 0.000000 0.000000 -6.716085 -1.355837 17.267923 4.228809 -1.488150 -5.888547 1.517507 -0.882273 -5.279818 -1.230127 0.458894 -1.987916 5.007249 -0.138731 5.575385 0.000000 0.000000 0.000000 8.052747 13.114467 7.590164 -71.636998 -5.473156 23.710198 -22.439849 -76.075683 0.625784 -0.265251 -13.745278 0.309823 -0.260597 -13.754263 0.000000 0.000000 0.000000 0.000000 0.000000 0.000000 0.000000 -5.500596 -17.416683 6.588221 68.237885 8.090871 12.445319 30.916858 52.713670 0.234988 0.888303 10.321706 0.116511 0.881193 10.325117 0.000000 0.000000 0.000000 0.000000 0.000000 0.000000 0.000000 
-2.184104 16.481642 23.701553 1.785738 6.011171 9.692756 -4.346402 4.621656 -6.122310 -17.769454 -1.245427 -2.546833 -8.469061 -12.219231 -31.780482 0.211354 10.663360 22.961143 0.000000 0.000000 0.000000 13.716242 2.548923 -3.458637 0.965356 -2.754075 -1.305722 2.121231 -27.602932 45.655016 16.208524 -26.373563 5.746315 0.000000 0.000000 0.000000 -6.866565 -1.223329 17.366453 4.015657 -1.543025 -5.617854 1.482936 -0.839189 -5.871569 -1.594685 0.485404 -1.299079 5.109859 -0.174696 5.942119 0.000000 0.000000 0.000000 7.927790 13.716414 7.424392 -71.516910 -5.491995 24.257111 -23.021192 -75.675397 0.651887 -0.472803 -13.605313 0.323158 -0.472956 -13.614983 0.000000 0.000000 0.000000 0.000000 0.000000 0.000000 0.000000 -5.039190 -18.166509 6.286692 67.768398 8.232606 12.064728 31.417182 50.906826 0.224271 0.957575 10.117771 0.111220 0.950860 10.121092 0.000000 0.000000 0.000000 0.000000 0.000000 0.000000 0.000000 
-2.193079 16.511357 23.892621 2.058306 5.749578 9.882178 -4.006741 4.596116 -6.479924 -18.475876 -0.983758 -2.052540 -8.137324 -11.826023 -30.838291 0.092343 9.622736 20.620301 0.000000 0.000000 0.000000 13.775236 2.365805 -3.028448 0.734671 -2.648411 -1.501754 1.794772 -27.346097 45.446788 16.490410 -27.845446 7.883831 0.000000 0.000000 0.000000 -7.013326 -1.087334 17.427612 3.836184 -1.585482 -5.391447 1.428405 -0.791548 -6.404100 -1.879563 0.502565 -0.670208 5.174721 -0.205283 6.244478 0.000000 0.000000 0.000000 7.774400 14.255945 7.275737 -71.395365 -5.510760 24.757206 -23.555036 -75.269636 0.676074 -0.658881 -13.462535 0.335512 -0.663404 -13.472775 0.000000 0.000000 0.000000 0.000000 0.000000 0.000000 0.000000 -4.652140 -18.799225 6.036867 67.369612 8.282001 11.919214 31.777383 49.784173 0.218788 1.013817 9.998456 0.108517 1.007394 10.001742 0.000000 0.000000 0.000000 0.000000 0.000000 0.000000 0.000000 
-2.197811 16.543529 24.081631 2.321509 5.481939 10.071883 -3.689968 4.604852 -6.844878 -19.165954 -0.746386 -1.625997 -7.847789 -11.383108 -29.762439 -0.004283 8.581698 18.250049 0.000000 0.000000 0.000000 13.840916 2.114471 -2.548461 0.496005 -2.512537 -1.768063 1.460241 -27.053699 45.214334 16.721741 -29.297600 9.964011 0.000000 0.000000 0.000000 -7.150351 -0.948633 17.449256 3.683444 -1.616913 -5.199683 1.348518 -0.740993 -6.879948 -2.089680 0.512495 -0.104062 5.212404 -0.230810 6.493577 0.000000 0.000000 0.000000 7.595962 14.735598 7.141122 -71.269662 -5.531290 25.212018 -24.043736 -74.858727 0.698416 -0.824655 -13.316680 0.346924 -0.833140 -13.327399 0.000000 0.000000 0.000000 0.000000 0.000000 0.000000 0.000000 -4.342652 -19.320197 5.844597 67.046965 8.232488 12.020318 32.048832 49.375320 0.218970 1.063024 9.970870 0.108619 1.056840 9.974185 0.000000 0.000000 0.000000 0.000000 0.000000 0.000000 0.000000 
-2.202176 16.574644 24.263607 2.565394 5.239009 10.237138 -3.397307 4.596297 -7.202632 -19.803276 -0.508713 -1.210385 -7.566268 -10.938194 -28.700350 -0.074092 7.610351 15.993696 0.000000 0.000000 0.000000 13.935034 1.928671 -2.108397 0.234176 -2.450884 -1.961745 1.140558 -26.785772 44.931407 16.898264 -30.701726 11.944242 0.000000 0.000000 0.000000 -7.313890 -0.840639 17.477112 3.562526 -1.639187 -5.061450 1.306616 -0.711383 -7.171097 -2.241956 0.521579 0.272038 5.232788 -0.250152 6.683888 0.000000 0.000000 0.000000 7.557141 15.041414 7.020535 -71.202851 -5.606570 25.540380 -24.299625 -74.688474 0.711509 -0.904127 -13.273580 0.353563 -0.914523 -13.284570 0.000000 0.000000 0.000000 0.000000 0.000000 0.000000 0.000000 -4.199707 -19.641838 5.702188 66.902229 8.113121 12.469608 32.220532 49.985522 0.227403 1.104379 10.072549 0.112810 1.098422 10.075986 0.000000 0.000000 0.000000 0.000000 0.000000 0.000000 0.000000 
-2.205716 16.604155 24.438312 2.790364 5.020587 10.377927 -3.129740 4.565480 -7.550330 -20.382618 -0.267551 -0.800166 -7.300464 -10.499098 -27.672667 -0.122061 6.714778 13.865494 0.000000 0.000000 0.000000 14.056502 1.810638 -1.709170 -0.047945 -2.459327 -2.081287 0.833969 -26.546637 44.608281 17.017471 -32.044386 13.818047 0.000000 0.000000 0.000000 -7.501547 -0.763986 17.507510 3.470093 -1.649585 -4.970929 1.301944 -0.701555 -7.272918 -2.343173 0.533203 0.449259 5.241149 -0.263677 6.821791 0.000000 0.000000 0.000000 7.669405 15.158698 6.915179 -71.200936 -5.738059 25.739349 -24.314589 -74.778380 0.715286 -0.897241 -13.340489 0.355395 -0.907503 -13.351573 0.000000 0.000000 0.000000 0.000000 0.000000 0.000000 0.000000 -4.227722 -19.757323 5.601039 66.952597 7.912768 13.306617 32.239698 51.682912 0.245230 1.135734 10.311602 0.121660 1.130039 10.315268 0.000000 0.000000 0.000000 0.000000 0.000000 0.000000 0.000000 
-2.208861 16.631727 24.605227 2.996879 4.825678 10.495435 -2.888230 4.508784 -7.885404 -20.900317 -0.021273 -0.392980 -7.048923 -10.072743 -26.698299 -0.152723 5.898746 11.879105 0.000000 0.000000 0.000000 14.202828 1.758055 -1.350494 -0.345512 -2.530953 -2.130017 0.543175 -26.339722 44.254088 17.080703 -33.314693 15.578882 0.000000 0.000000 0.000000 -7.709315 -0.715799 17.537640 3.402029 -1.644226 -4.922421 1.334089 -0.708263 -7.197559 -2.401886 0.549172 0.438282 5.241070 -0.271989 6.913730 0.000000 0.000000 0.000000 7.933344 15.079589 6.829107 -71.261105 -5.924411 25.806259 -24.091737 -75.126969 0.709544 -0.804582 -13.515770 0.352313 -0.812602 -13.526764 0.000000 0.000000 0.000000 0.000000 0.000000 0.000000 0.000000 -4.418477 -19.670074 5.517657 67.201883 7.621570 14.554098 31.974662 54.464165 0.273127 1.147461 10.683001 0.135498 1.142098 10.687013 0.000000 0.000000 0.000000 0.000000 0.000000 0.000000 0.000000 
-2.212163 16.656905 24.764206 3.185510 4.656475 10.588754 -2.671511 4.418667 -8.206007 -21.353880 0.234190 0.020439 -6.808929 -9.667719 -25.800316 -0.169665 5.164832 10.044285 0.000000 0.000000 0.000000 14.373503 1.775425 -1.034663 -0.655899 -2.665089 -2.102884 0.271425 -26.171370 43.874161 17.092230 -34.507313 17.225271 0.000000 0.000000 0.000000 -7.937243 -0.693542 17.565721 3.356390 -1.616331 -4.915649 1.408009 -0.729116 -6.947273 -2.421939 0.569854 0.239811 5.233935 -0.275200 6.960326 0.000000 0.000000 0.000000 8.362781 14.774479 6.771345 -71.380292 -6.170707 25.718373 -23.608856 -75.750902 0.692424 -0.613749 -13.805309 0.343352 -0.616947 -13.815942 0.000000 0.000000 0.000000 0.000000 0.000000 0.000000 0.000000 -4.777660 -19.364596 5.417289 67.669885 7.222057 16.250966 31.170292 58.392799 0.311780 1.115374 11.183242 0.154655 1.110343 11.187727 0.000000 0.000000 0.000000 0.000000 0.000000 0.000000 0.000000 
-2.212582 16.682206 24.919294 3.366652 4.457885 10.683330 -2.478679 4.359914 -8.515594 -21.781329 0.471477 0.377554 -6.601334 -9.241972 -24.857696 -0.180461 4.464062 8.249697 0.000000 0.000000 0.000000 14.545827 1.761576 -0.699473 -0.972737 -2.781542 -2.115515 -0.019783 -25.989031 43.504572 17.013739 -35.593643 18.825603 0.000000 0.000000 0.000000 -8.157109 -0.671238 17.568350 3.317407 -1.586024 -4.910677 1.489835 -0.746968 -6.735797 -2.452716 0.588496 0.071500 5.227449 -0.277999 6.997429 0.000000 0.000000 0.000000 8.750397 14.480400 6.737973 -71.481489 -6.386294 25.608862 -23.143659 -76.332203 0.674354 -0.426183 -14.075450 0.333908 -0.424409 -14.085636 0.000000 0.000000 0.000000 0.000000 0.000000 0.000000 0.000000 -5.073075 -19.101008 5.282368 68.058201 6.899376 17.638375 30.203865 61.586047 0.342932 1.056814 11.573789 0.170073 1.051911 11.578655 0.000000 0.000000 0.000000 0.000000 0.000000 0.000000 0.000000 
